M48
;DRILL file {KiCad 4.0.7} date 03/09/19 17:15:21
;FORMAT={-:-/ absolute / inch / decimal}
FMAT,2
INCH,TZ
T1C0.040
%
G90
G05
M72
T1
X7.Y-2.5
X7.Y-2.6
X7.Y-2.7
X7.Y-2.8
X7.Y-2.9
X7.Y-3.
X7.Y-3.1
X7.Y-3.2
X7.Y-3.3
X7.Y-3.4
X7.Y-3.5
X7.Y-3.6
X7.Y-3.7
X7.Y-3.8
X7.Y-3.9
X7.Y-4.
X7.Y-4.1
X7.Y-4.2
X7.Y-4.3
X7.Y-4.4
X7.Y-4.5
X7.Y-4.6
X7.Y-4.7
X7.Y-4.8
X7.Y-4.9
X7.Y-5.
X7.Y-5.1
X7.Y-5.2
X7.Y-5.3
X7.Y-5.4
X7.Y-5.5
X7.Y-5.6
X7.Y-5.7
X7.Y-5.8
X7.Y-5.9
X7.Y-6.
X7.Y-6.1
X7.Y-6.2
X7.Y-6.3
X7.Y-6.4
X7.Y-6.5
X7.Y-6.6
X7.Y-6.7
X7.Y-6.8
X7.1Y-2.5
X7.1Y-2.6
X7.1Y-2.7
X7.1Y-2.8
X7.1Y-2.9
X7.1Y-3.
X7.1Y-3.1
X7.1Y-3.2
X7.1Y-3.3
X7.1Y-3.4
X7.1Y-3.5
X7.1Y-3.6
X7.1Y-3.7
X7.1Y-3.8
X7.1Y-3.9
X7.1Y-4.
X7.1Y-4.1
X7.1Y-4.2
X7.1Y-4.3
X7.1Y-4.4
X7.1Y-4.5
X7.1Y-4.6
X7.1Y-4.7
X7.1Y-4.8
X7.1Y-4.9
X7.1Y-5.
X7.1Y-5.1
X7.1Y-5.2
X7.1Y-5.3
X7.1Y-5.4
X7.1Y-5.5
X7.1Y-5.6
X7.1Y-5.7
X7.1Y-5.8
X7.1Y-5.9
X7.1Y-6.
X7.1Y-6.1
X7.1Y-6.2
X7.1Y-6.3
X7.1Y-6.4
X7.1Y-6.5
X7.1Y-6.6
X7.1Y-6.7
X7.1Y-6.8
X7.2Y-2.5
X7.2Y-2.6
X7.2Y-2.7
X7.2Y-2.8
X7.2Y-2.9
X7.2Y-3.
X7.2Y-3.1
X7.2Y-3.2
X7.2Y-3.3
X7.2Y-3.4
X7.2Y-3.5
X7.2Y-3.6
X7.2Y-3.7
X7.2Y-3.8
X7.2Y-3.9
X7.2Y-4.
X7.2Y-4.1
X7.2Y-4.2
X7.2Y-4.3
X7.2Y-4.4
X7.2Y-4.5
X7.2Y-4.6
X7.2Y-4.7
X7.2Y-4.8
X7.2Y-4.9
X7.2Y-5.
X7.2Y-5.1
X7.2Y-5.2
X7.2Y-5.3
X7.2Y-5.4
X7.2Y-5.5
X7.2Y-5.6
X7.2Y-5.7
X7.2Y-5.8
X7.2Y-5.9
X7.2Y-6.
X7.2Y-6.1
X7.2Y-6.2
X7.2Y-6.3
X7.2Y-6.4
X7.2Y-6.5
X7.2Y-6.6
X7.2Y-6.7
X7.2Y-6.8
X7.3Y-2.5
X7.3Y-2.6
X7.3Y-2.7
X7.3Y-2.8
X7.3Y-2.9
X7.3Y-3.
X7.3Y-3.1
X7.3Y-3.2
X7.3Y-3.3
X7.3Y-3.4
X7.3Y-3.5
X7.3Y-3.6
X7.3Y-3.7
X7.3Y-3.8
X7.3Y-3.9
X7.3Y-4.
X7.3Y-4.1
X7.3Y-4.2
X7.3Y-4.3
X7.3Y-4.4
X7.3Y-4.5
X7.3Y-4.6
X7.3Y-4.7
X7.3Y-4.8
X7.3Y-4.9
X7.3Y-5.
X7.3Y-5.1
X7.3Y-5.2
X7.3Y-5.3
X7.3Y-5.4
X7.3Y-5.5
X7.3Y-5.6
X7.3Y-5.7
X7.3Y-5.8
X7.3Y-5.9
X7.3Y-6.
X7.3Y-6.1
X7.3Y-6.2
X7.3Y-6.3
X7.3Y-6.4
X7.3Y-6.5
X7.3Y-6.6
X7.3Y-6.7
X7.3Y-6.8
X7.4Y-2.5
X7.4Y-2.6
X7.4Y-2.7
X7.4Y-2.8
X7.4Y-2.9
X7.4Y-3.
X7.4Y-3.1
X7.4Y-3.2
X7.4Y-3.3
X7.4Y-3.4
X7.4Y-3.5
X7.4Y-3.6
X7.4Y-3.7
X7.4Y-3.8
X7.4Y-3.9
X7.4Y-4.
X7.4Y-4.1
X7.4Y-4.2
X7.4Y-4.3
X7.4Y-4.4
X7.4Y-4.5
X7.4Y-4.6
X7.4Y-4.7
X7.4Y-4.8
X7.4Y-4.9
X7.4Y-5.
X7.4Y-5.1
X7.4Y-5.2
X7.4Y-5.3
X7.4Y-5.4
X7.4Y-5.5
X7.4Y-5.6
X7.4Y-5.7
X7.4Y-5.8
X7.4Y-5.9
X7.4Y-6.
X7.4Y-6.1
X7.4Y-6.2
X7.4Y-6.3
X7.4Y-6.4
X7.4Y-6.5
X7.4Y-6.6
X7.4Y-6.7
X7.4Y-6.8
X7.5Y-2.5
X7.5Y-2.6
X7.5Y-2.7
X7.5Y-2.8
X7.5Y-2.9
X7.5Y-3.
X7.5Y-3.1
X7.5Y-3.2
X7.5Y-3.3
X7.5Y-3.4
X7.5Y-3.5
X7.5Y-3.6
X7.5Y-3.7
X7.5Y-3.8
X7.5Y-3.9
X7.5Y-4.
X7.5Y-4.1
X7.5Y-4.2
X7.5Y-4.3
X7.5Y-4.4
X7.5Y-4.5
X7.5Y-4.6
X7.5Y-4.7
X7.5Y-4.8
X7.5Y-4.9
X7.5Y-5.
X7.5Y-5.1
X7.5Y-5.2
X7.5Y-5.3
X7.5Y-5.4
X7.5Y-5.5
X7.5Y-5.6
X7.5Y-5.7
X7.5Y-5.8
X7.5Y-5.9
X7.5Y-6.
X7.5Y-6.1
X7.5Y-6.2
X7.5Y-6.3
X7.5Y-6.4
X7.5Y-6.5
X7.5Y-6.6
X7.5Y-6.7
X7.5Y-6.8
X7.6Y-2.5
X7.6Y-2.6
X7.6Y-2.7
X7.6Y-2.8
X7.6Y-2.9
X7.6Y-3.
X7.6Y-3.1
X7.6Y-3.2
X7.6Y-3.3
X7.6Y-3.4
X7.6Y-3.5
X7.6Y-3.6
X7.6Y-3.7
X7.6Y-3.8
X7.6Y-3.9
X7.6Y-4.
X7.6Y-4.1
X7.6Y-4.2
X7.6Y-4.3
X7.6Y-4.4
X7.6Y-4.5
X7.6Y-4.6
X7.6Y-4.7
X7.6Y-4.8
X7.6Y-4.9
X7.6Y-5.
X7.6Y-5.1
X7.6Y-5.2
X7.6Y-5.3
X7.6Y-5.4
X7.6Y-5.5
X7.6Y-5.6
X7.6Y-5.7
X7.6Y-5.8
X7.6Y-5.9
X7.6Y-6.
X7.6Y-6.1
X7.6Y-6.2
X7.6Y-6.3
X7.6Y-6.4
X7.6Y-6.5
X7.6Y-6.6
X7.6Y-6.7
X7.6Y-6.8
X7.7Y-2.5
X7.7Y-2.6
X7.7Y-2.7
X7.7Y-2.8
X7.7Y-2.9
X7.7Y-3.
X7.7Y-3.1
X7.7Y-3.2
X7.7Y-3.3
X7.7Y-3.4
X7.7Y-3.5
X7.7Y-3.6
X7.7Y-3.7
X7.7Y-3.8
X7.7Y-3.9
X7.7Y-4.
X7.7Y-4.1
X7.7Y-4.2
X7.7Y-4.3
X7.7Y-4.4
X7.7Y-4.5
X7.7Y-4.6
X7.7Y-4.7
X7.7Y-4.8
X7.7Y-4.9
X7.7Y-5.
X7.7Y-5.1
X7.7Y-5.2
X7.7Y-5.3
X7.7Y-5.4
X7.7Y-5.5
X7.7Y-5.6
X7.7Y-5.7
X7.7Y-5.8
X7.7Y-5.9
X7.7Y-6.
X7.7Y-6.1
X7.7Y-6.2
X7.7Y-6.3
X7.7Y-6.4
X7.7Y-6.5
X7.7Y-6.6
X7.7Y-6.7
X7.7Y-6.8
X7.8Y-2.5
X7.8Y-2.6
X7.8Y-2.7
X7.8Y-2.8
X7.8Y-2.9
X7.8Y-3.
X7.8Y-3.1
X7.8Y-3.2
X7.8Y-3.3
X7.8Y-3.4
X7.8Y-3.5
X7.8Y-3.6
X7.8Y-3.7
X7.8Y-3.8
X7.8Y-3.9
X7.8Y-4.
X7.8Y-4.1
X7.8Y-4.2
X7.8Y-4.3
X7.8Y-4.4
X7.8Y-4.5
X7.8Y-4.6
X7.8Y-4.7
X7.8Y-4.8
X7.8Y-4.9
X7.8Y-5.
X7.8Y-5.1
X7.8Y-5.2
X7.8Y-5.3
X7.8Y-5.4
X7.8Y-5.5
X7.8Y-5.6
X7.8Y-5.7
X7.8Y-5.8
X7.8Y-5.9
X7.8Y-6.
X7.8Y-6.1
X7.8Y-6.2
X7.8Y-6.3
X7.8Y-6.4
X7.8Y-6.5
X7.8Y-6.6
X7.8Y-6.7
X7.8Y-6.8
X7.9Y-2.5
X7.9Y-2.6
X7.9Y-2.7
X7.9Y-2.8
X7.9Y-2.9
X7.9Y-3.
X7.9Y-3.1
X7.9Y-3.2
X7.9Y-3.3
X7.9Y-3.4
X7.9Y-3.5
X7.9Y-3.6
X7.9Y-3.7
X7.9Y-3.8
X7.9Y-3.9
X7.9Y-4.
X7.9Y-4.1
X7.9Y-4.2
X7.9Y-4.3
X7.9Y-4.4
X7.9Y-4.5
X7.9Y-4.6
X7.9Y-4.7
X7.9Y-4.8
X7.9Y-4.9
X7.9Y-5.
X7.9Y-5.1
X7.9Y-5.2
X7.9Y-5.3
X7.9Y-5.4
X7.9Y-5.5
X7.9Y-5.6
X7.9Y-5.7
X7.9Y-5.8
X7.9Y-5.9
X7.9Y-6.
X7.9Y-6.1
X7.9Y-6.2
X7.9Y-6.3
X7.9Y-6.4
X7.9Y-6.5
X7.9Y-6.6
X7.9Y-6.7
X7.9Y-6.8
X8.Y-2.5
X8.Y-2.6
X8.Y-2.7
X8.Y-2.8
X8.Y-2.9
X8.Y-3.
X8.Y-3.1
X8.Y-3.2
X8.Y-3.3
X8.Y-3.4
X8.Y-3.5
X8.Y-3.6
X8.Y-3.7
X8.Y-3.8
X8.Y-3.9
X8.Y-4.
X8.Y-4.1
X8.Y-4.2
X8.Y-4.3
X8.Y-4.4
X8.Y-4.5
X8.Y-4.6
X8.Y-4.7
X8.Y-4.8
X8.Y-4.9
X8.Y-5.
X8.Y-5.1
X8.Y-5.2
X8.Y-5.3
X8.Y-5.4
X8.Y-5.5
X8.Y-5.6
X8.Y-5.7
X8.Y-5.8
X8.Y-5.9
X8.Y-6.
X8.Y-6.1
X8.Y-6.2
X8.Y-6.3
X8.Y-6.4
X8.Y-6.5
X8.Y-6.6
X8.Y-6.7
X8.Y-6.8
X8.1Y-2.5
X8.1Y-2.6
X8.1Y-2.7
X8.1Y-2.8
X8.1Y-2.9
X8.1Y-3.
X8.1Y-3.1
X8.1Y-3.2
X8.1Y-3.3
X8.1Y-3.4
X8.1Y-3.5
X8.1Y-3.6
X8.1Y-3.7
X8.1Y-3.8
X8.1Y-3.9
X8.1Y-4.
X8.1Y-4.1
X8.1Y-4.2
X8.1Y-4.3
X8.1Y-4.4
X8.1Y-4.5
X8.1Y-4.6
X8.1Y-4.7
X8.1Y-4.8
X8.1Y-4.9
X8.1Y-5.
X8.1Y-5.1
X8.1Y-5.2
X8.1Y-5.3
X8.1Y-5.4
X8.1Y-5.5
X8.1Y-5.6
X8.1Y-5.7
X8.1Y-5.8
X8.1Y-5.9
X8.1Y-6.
X8.1Y-6.1
X8.1Y-6.2
X8.1Y-6.3
X8.1Y-6.4
X8.1Y-6.5
X8.1Y-6.6
X8.1Y-6.7
X8.1Y-6.8
X8.1Y-26.75
X8.2Y-2.5
X8.2Y-2.6
X8.2Y-2.7
X8.2Y-2.8
X8.2Y-2.9
X8.2Y-3.
X8.2Y-3.1
X8.2Y-3.2
X8.2Y-3.3
X8.2Y-3.4
X8.2Y-3.5
X8.2Y-3.6
X8.2Y-3.7
X8.2Y-3.8
X8.2Y-3.9
X8.2Y-4.
X8.2Y-4.1
X8.2Y-4.2
X8.2Y-4.3
X8.2Y-4.4
X8.2Y-4.5
X8.2Y-4.6
X8.2Y-4.7
X8.2Y-4.8
X8.2Y-4.9
X8.2Y-5.
X8.2Y-5.1
X8.2Y-5.2
X8.2Y-5.3
X8.2Y-5.4
X8.2Y-5.5
X8.2Y-5.6
X8.2Y-5.7
X8.2Y-5.8
X8.2Y-5.9
X8.2Y-6.
X8.2Y-6.1
X8.2Y-6.2
X8.2Y-6.3
X8.2Y-6.4
X8.2Y-6.5
X8.2Y-6.6
X8.2Y-6.7
X8.2Y-6.8
X8.3Y-2.5
X8.3Y-2.6
X8.3Y-2.7
X8.3Y-2.8
X8.3Y-2.9
X8.3Y-3.
X8.3Y-3.1
X8.3Y-3.2
X8.3Y-3.3
X8.3Y-3.4
X8.3Y-3.5
X8.3Y-3.6
X8.3Y-3.7
X8.3Y-3.8
X8.3Y-3.9
X8.3Y-4.
X8.3Y-4.1
X8.3Y-4.2
X8.3Y-4.3
X8.3Y-4.4
X8.3Y-4.5
X8.3Y-4.6
X8.3Y-4.7
X8.3Y-4.8
X8.3Y-4.9
X8.3Y-5.
X8.3Y-5.1
X8.3Y-5.2
X8.3Y-5.3
X8.3Y-5.4
X8.3Y-5.5
X8.3Y-5.6
X8.3Y-5.7
X8.3Y-5.8
X8.3Y-5.9
X8.3Y-6.
X8.3Y-6.1
X8.3Y-6.2
X8.3Y-6.3
X8.3Y-6.4
X8.3Y-6.5
X8.3Y-6.6
X8.3Y-6.7
X8.3Y-6.8
X8.4Y-2.5
X8.4Y-2.6
X8.4Y-2.7
X8.4Y-2.8
X8.4Y-2.9
X8.4Y-3.
X8.4Y-3.1
X8.4Y-3.2
X8.4Y-3.3
X8.4Y-3.4
X8.4Y-3.5
X8.4Y-3.6
X8.4Y-3.7
X8.4Y-3.8
X8.4Y-3.9
X8.4Y-4.
X8.4Y-4.1
X8.4Y-4.2
X8.4Y-4.3
X8.4Y-4.4
X8.4Y-4.5
X8.4Y-4.6
X8.4Y-4.7
X8.4Y-4.8
X8.4Y-4.9
X8.4Y-5.
X8.4Y-5.1
X8.4Y-5.2
X8.4Y-5.3
X8.4Y-5.4
X8.4Y-5.5
X8.4Y-5.6
X8.4Y-5.7
X8.4Y-5.8
X8.4Y-5.9
X8.4Y-6.
X8.4Y-6.1
X8.4Y-6.2
X8.4Y-6.3
X8.4Y-6.4
X8.4Y-6.5
X8.4Y-6.6
X8.4Y-6.7
X8.4Y-6.8
X8.5Y-2.5
X8.5Y-2.6
X8.5Y-2.7
X8.5Y-2.8
X8.5Y-2.9
X8.5Y-3.
X8.5Y-3.1
X8.5Y-3.2
X8.5Y-3.3
X8.5Y-3.4
X8.5Y-3.5
X8.5Y-3.6
X8.5Y-3.7
X8.5Y-3.8
X8.5Y-3.9
X8.5Y-4.
X8.5Y-4.1
X8.5Y-4.2
X8.5Y-4.3
X8.5Y-4.4
X8.5Y-4.5
X8.5Y-4.6
X8.5Y-4.7
X8.5Y-4.8
X8.5Y-4.9
X8.5Y-5.
X8.5Y-5.1
X8.5Y-5.2
X8.5Y-5.3
X8.5Y-5.4
X8.5Y-5.5
X8.5Y-5.6
X8.5Y-5.7
X8.5Y-5.8
X8.5Y-5.9
X8.5Y-6.
X8.5Y-6.1
X8.5Y-6.2
X8.5Y-6.3
X8.5Y-6.4
X8.5Y-6.5
X8.5Y-6.6
X8.5Y-6.7
X8.5Y-6.8
X8.6Y-2.5
X8.6Y-2.6
X8.6Y-2.7
X8.6Y-2.8
X8.6Y-2.9
X8.6Y-3.
X8.6Y-3.1
X8.6Y-3.2
X8.6Y-3.3
X8.6Y-3.4
X8.6Y-3.5
X8.6Y-3.6
X8.6Y-3.7
X8.6Y-3.8
X8.6Y-3.9
X8.6Y-4.
X8.6Y-4.1
X8.6Y-4.2
X8.6Y-4.3
X8.6Y-4.4
X8.6Y-4.5
X8.6Y-4.6
X8.6Y-4.7
X8.6Y-4.8
X8.6Y-4.9
X8.6Y-5.
X8.6Y-5.1
X8.6Y-5.2
X8.6Y-5.3
X8.6Y-5.4
X8.6Y-5.5
X8.6Y-5.6
X8.6Y-5.7
X8.6Y-5.8
X8.6Y-5.9
X8.6Y-6.
X8.6Y-6.1
X8.6Y-6.2
X8.6Y-6.3
X8.6Y-6.4
X8.6Y-6.5
X8.6Y-6.6
X8.6Y-6.7
X8.6Y-6.8
X8.7Y-2.5
X8.7Y-2.6
X8.7Y-2.7
X8.7Y-2.8
X8.7Y-2.9
X8.7Y-3.
X8.7Y-3.1
X8.7Y-3.2
X8.7Y-3.3
X8.7Y-3.4
X8.7Y-3.5
X8.7Y-3.6
X8.7Y-3.7
X8.7Y-3.8
X8.7Y-3.9
X8.7Y-4.
X8.7Y-4.1
X8.7Y-4.2
X8.7Y-4.3
X8.7Y-4.4
X8.7Y-4.5
X8.7Y-4.6
X8.7Y-4.7
X8.7Y-4.8
X8.7Y-4.9
X8.7Y-5.
X8.7Y-5.1
X8.7Y-5.2
X8.7Y-5.3
X8.7Y-5.4
X8.7Y-5.5
X8.7Y-5.6
X8.7Y-5.7
X8.7Y-5.8
X8.7Y-5.9
X8.7Y-6.
X8.7Y-6.1
X8.7Y-6.2
X8.7Y-6.3
X8.7Y-6.4
X8.7Y-6.5
X8.7Y-6.6
X8.7Y-6.7
X8.7Y-6.8
X8.8Y-2.5
X8.8Y-2.6
X8.8Y-2.7
X8.8Y-2.8
X8.8Y-2.9
X8.8Y-3.
X8.8Y-3.1
X8.8Y-3.2
X8.8Y-3.3
X8.8Y-3.4
X8.8Y-3.5
X8.8Y-3.6
X8.8Y-3.7
X8.8Y-3.8
X8.8Y-3.9
X8.8Y-4.
X8.8Y-4.1
X8.8Y-4.2
X8.8Y-4.3
X8.8Y-4.4
X8.8Y-4.5
X8.8Y-4.6
X8.8Y-4.7
X8.8Y-4.8
X8.8Y-4.9
X8.8Y-5.
X8.8Y-5.1
X8.8Y-5.2
X8.8Y-5.3
X8.8Y-5.4
X8.8Y-5.5
X8.8Y-5.6
X8.8Y-5.7
X8.8Y-5.8
X8.8Y-5.9
X8.8Y-6.
X8.8Y-6.1
X8.8Y-6.2
X8.8Y-6.3
X8.8Y-6.4
X8.8Y-6.5
X8.8Y-6.6
X8.8Y-6.7
X8.8Y-6.8
X8.9Y-2.5
X8.9Y-2.6
X8.9Y-2.7
X8.9Y-2.8
X8.9Y-2.9
X8.9Y-3.
X8.9Y-3.1
X8.9Y-3.2
X8.9Y-3.3
X8.9Y-3.4
X8.9Y-3.5
X8.9Y-3.6
X8.9Y-3.7
X8.9Y-3.8
X8.9Y-3.9
X8.9Y-4.
X8.9Y-4.1
X8.9Y-4.2
X8.9Y-4.3
X8.9Y-4.4
X8.9Y-4.5
X8.9Y-4.6
X8.9Y-4.7
X8.9Y-4.8
X8.9Y-4.9
X8.9Y-5.
X8.9Y-5.1
X8.9Y-5.2
X8.9Y-5.3
X8.9Y-5.4
X8.9Y-5.5
X8.9Y-5.6
X8.9Y-5.7
X8.9Y-5.8
X8.9Y-5.9
X8.9Y-6.
X8.9Y-6.1
X8.9Y-6.2
X8.9Y-6.3
X8.9Y-6.4
X8.9Y-6.5
X8.9Y-6.6
X8.9Y-6.7
X8.9Y-6.8
X9.Y-2.5
X9.Y-2.6
X9.Y-2.7
X9.Y-2.8
X9.Y-2.9
X9.Y-3.
X9.Y-3.1
X9.Y-3.2
X9.Y-3.3
X9.Y-3.4
X9.Y-3.5
X9.Y-3.6
X9.Y-3.7
X9.Y-3.8
X9.Y-3.9
X9.Y-4.
X9.Y-4.1
X9.Y-4.2
X9.Y-4.3
X9.Y-4.4
X9.Y-4.5
X9.Y-4.6
X9.Y-4.7
X9.Y-4.8
X9.Y-4.9
X9.Y-5.
X9.Y-5.1
X9.Y-5.2
X9.Y-5.3
X9.Y-5.4
X9.Y-5.5
X9.Y-5.6
X9.Y-5.7
X9.Y-5.8
X9.Y-5.9
X9.Y-6.
X9.Y-6.1
X9.Y-6.2
X9.Y-6.3
X9.Y-6.4
X9.Y-6.5
X9.Y-6.6
X9.Y-6.7
X9.Y-6.8
X9.1Y-2.5
X9.1Y-2.6
X9.1Y-2.7
X9.1Y-2.8
X9.1Y-2.9
X9.1Y-3.
X9.1Y-3.1
X9.1Y-3.2
X9.1Y-3.3
X9.1Y-3.4
X9.1Y-3.5
X9.1Y-3.6
X9.1Y-3.7
X9.1Y-3.8
X9.1Y-3.9
X9.1Y-4.
X9.1Y-4.1
X9.1Y-4.2
X9.1Y-4.3
X9.1Y-4.4
X9.1Y-4.5
X9.1Y-4.6
X9.1Y-4.7
X9.1Y-4.8
X9.1Y-4.9
X9.1Y-5.
X9.1Y-5.1
X9.1Y-5.2
X9.1Y-5.3
X9.1Y-5.4
X9.1Y-5.5
X9.1Y-5.6
X9.1Y-5.7
X9.1Y-5.8
X9.1Y-5.9
X9.1Y-6.
X9.1Y-6.1
X9.1Y-6.2
X9.1Y-6.3
X9.1Y-6.4
X9.1Y-6.5
X9.1Y-6.6
X9.1Y-6.7
X9.1Y-6.8
X9.2Y-2.5
X9.2Y-2.6
X9.2Y-2.7
X9.2Y-2.8
X9.2Y-2.9
X9.2Y-3.
X9.2Y-3.1
X9.2Y-3.2
X9.2Y-3.3
X9.2Y-3.4
X9.2Y-3.5
X9.2Y-3.6
X9.2Y-3.7
X9.2Y-3.8
X9.2Y-3.9
X9.2Y-4.
X9.2Y-4.1
X9.2Y-4.2
X9.2Y-4.3
X9.2Y-4.4
X9.2Y-4.5
X9.2Y-4.6
X9.2Y-4.7
X9.2Y-4.8
X9.2Y-4.9
X9.2Y-5.
X9.2Y-5.1
X9.2Y-5.2
X9.2Y-5.3
X9.2Y-5.4
X9.2Y-5.5
X9.2Y-5.6
X9.2Y-5.7
X9.2Y-5.8
X9.2Y-5.9
X9.2Y-6.
X9.2Y-6.1
X9.2Y-6.2
X9.2Y-6.3
X9.2Y-6.4
X9.2Y-6.5
X9.2Y-6.6
X9.2Y-6.7
X9.2Y-6.8
X9.3Y-2.5
X9.3Y-2.6
X9.3Y-2.7
X9.3Y-2.8
X9.3Y-2.9
X9.3Y-3.
X9.3Y-3.1
X9.3Y-3.2
X9.3Y-3.3
X9.3Y-3.4
X9.3Y-3.5
X9.3Y-3.6
X9.3Y-3.7
X9.3Y-3.8
X9.3Y-3.9
X9.3Y-4.
X9.3Y-4.1
X9.3Y-4.2
X9.3Y-4.3
X9.3Y-4.4
X9.3Y-4.5
X9.3Y-4.6
X9.3Y-4.7
X9.3Y-4.8
X9.3Y-4.9
X9.3Y-5.
X9.3Y-5.1
X9.3Y-5.2
X9.3Y-5.3
X9.3Y-5.4
X9.3Y-5.5
X9.3Y-5.6
X9.3Y-5.7
X9.3Y-5.8
X9.3Y-5.9
X9.3Y-6.
X9.3Y-6.1
X9.3Y-6.2
X9.3Y-6.3
X9.3Y-6.4
X9.3Y-6.5
X9.3Y-6.6
X9.3Y-6.7
X9.3Y-6.8
X9.4Y-2.5
X9.4Y-2.6
X9.4Y-2.7
X9.4Y-2.8
X9.4Y-2.9
X9.4Y-3.
X9.4Y-3.1
X9.4Y-3.2
X9.4Y-3.3
X9.4Y-3.4
X9.4Y-3.5
X9.4Y-3.6
X9.4Y-3.7
X9.4Y-3.8
X9.4Y-3.9
X9.4Y-4.
X9.4Y-4.1
X9.4Y-4.2
X9.4Y-4.3
X9.4Y-4.4
X9.4Y-4.5
X9.4Y-4.6
X9.4Y-4.7
X9.4Y-4.8
X9.4Y-4.9
X9.4Y-5.
X9.4Y-5.1
X9.4Y-5.2
X9.4Y-5.3
X9.4Y-5.4
X9.4Y-5.5
X9.4Y-5.6
X9.4Y-5.7
X9.4Y-5.8
X9.4Y-5.9
X9.4Y-6.
X9.4Y-6.1
X9.4Y-6.2
X9.4Y-6.3
X9.4Y-6.4
X9.4Y-6.5
X9.4Y-6.6
X9.4Y-6.7
X9.4Y-6.8
X9.5Y-2.5
X9.5Y-2.6
X9.5Y-2.7
X9.5Y-2.8
X9.5Y-2.9
X9.5Y-3.
X9.5Y-3.1
X9.5Y-3.2
X9.5Y-3.3
X9.5Y-3.4
X9.5Y-3.5
X9.5Y-3.6
X9.5Y-3.7
X9.5Y-3.8
X9.5Y-3.9
X9.5Y-4.
X9.5Y-4.1
X9.5Y-4.2
X9.5Y-4.3
X9.5Y-4.4
X9.5Y-4.5
X9.5Y-4.6
X9.5Y-4.7
X9.5Y-4.8
X9.5Y-4.9
X9.5Y-5.
X9.5Y-5.1
X9.5Y-5.2
X9.5Y-5.3
X9.5Y-5.4
X9.5Y-5.5
X9.5Y-5.6
X9.5Y-5.7
X9.5Y-5.8
X9.5Y-5.9
X9.5Y-6.
X9.5Y-6.1
X9.5Y-6.2
X9.5Y-6.3
X9.5Y-6.4
X9.5Y-6.5
X9.5Y-6.6
X9.5Y-6.7
X9.5Y-6.8
X9.6Y-2.5
X9.6Y-2.6
X9.6Y-2.7
X9.6Y-2.8
X9.6Y-2.9
X9.6Y-3.
X9.6Y-3.1
X9.6Y-3.2
X9.6Y-3.3
X9.6Y-3.4
X9.6Y-3.5
X9.6Y-3.6
X9.6Y-3.7
X9.6Y-3.8
X9.6Y-3.9
X9.6Y-4.
X9.6Y-4.1
X9.6Y-4.2
X9.6Y-4.3
X9.6Y-4.4
X9.6Y-4.5
X9.6Y-4.6
X9.6Y-4.7
X9.6Y-4.8
X9.6Y-4.9
X9.6Y-5.
X9.6Y-5.1
X9.6Y-5.2
X9.6Y-5.3
X9.6Y-5.4
X9.6Y-5.5
X9.6Y-5.6
X9.6Y-5.7
X9.6Y-5.8
X9.6Y-5.9
X9.6Y-6.
X9.6Y-6.1
X9.6Y-6.2
X9.6Y-6.3
X9.6Y-6.4
X9.6Y-6.5
X9.6Y-6.6
X9.6Y-6.7
X9.6Y-6.8
X9.7Y-2.5
X9.7Y-2.6
X9.7Y-2.7
X9.7Y-2.8
X9.7Y-2.9
X9.7Y-3.
X9.7Y-3.1
X9.7Y-3.2
X9.7Y-3.3
X9.7Y-3.4
X9.7Y-3.5
X9.7Y-3.6
X9.7Y-3.7
X9.7Y-3.8
X9.7Y-3.9
X9.7Y-4.
X9.7Y-4.1
X9.7Y-4.2
X9.7Y-4.3
X9.7Y-4.4
X9.7Y-4.5
X9.7Y-4.6
X9.7Y-4.7
X9.7Y-4.8
X9.7Y-4.9
X9.7Y-5.
X9.7Y-5.1
X9.7Y-5.2
X9.7Y-5.3
X9.7Y-5.4
X9.7Y-5.5
X9.7Y-5.6
X9.7Y-5.7
X9.7Y-5.8
X9.7Y-5.9
X9.7Y-6.
X9.7Y-6.1
X9.7Y-6.2
X9.7Y-6.3
X9.7Y-6.4
X9.7Y-6.5
X9.7Y-6.6
X9.7Y-6.7
X9.7Y-6.8
X9.8Y-2.5
X9.8Y-2.6
X9.8Y-2.7
X9.8Y-2.8
X9.8Y-2.9
X9.8Y-3.
X9.8Y-3.1
X9.8Y-3.2
X9.8Y-3.3
X9.8Y-3.4
X9.8Y-3.5
X9.8Y-3.6
X9.8Y-3.7
X9.8Y-3.8
X9.8Y-3.9
X9.8Y-4.
X9.8Y-4.1
X9.8Y-4.2
X9.8Y-4.3
X9.8Y-4.4
X9.8Y-4.5
X9.8Y-4.6
X9.8Y-4.7
X9.8Y-4.8
X9.8Y-4.9
X9.8Y-5.
X9.8Y-5.1
X9.8Y-5.2
X9.8Y-5.3
X9.8Y-5.4
X9.8Y-5.5
X9.8Y-5.6
X9.8Y-5.7
X9.8Y-5.8
X9.8Y-5.9
X9.8Y-6.
X9.8Y-6.1
X9.8Y-6.2
X9.8Y-6.3
X9.8Y-6.4
X9.8Y-6.5
X9.8Y-6.6
X9.8Y-6.7
X9.8Y-6.8
X9.9Y-2.5
X9.9Y-2.6
X9.9Y-2.7
X9.9Y-2.8
X9.9Y-2.9
X9.9Y-3.
X9.9Y-3.1
X9.9Y-3.2
X9.9Y-3.3
X9.9Y-3.4
X9.9Y-3.5
X9.9Y-3.6
X9.9Y-3.7
X9.9Y-3.8
X9.9Y-3.9
X9.9Y-4.
X9.9Y-4.1
X9.9Y-4.2
X9.9Y-4.3
X9.9Y-4.4
X9.9Y-4.5
X9.9Y-4.6
X9.9Y-4.7
X9.9Y-4.8
X9.9Y-4.9
X9.9Y-5.
X9.9Y-5.1
X9.9Y-5.2
X9.9Y-5.3
X9.9Y-5.4
X9.9Y-5.5
X9.9Y-5.6
X9.9Y-5.7
X9.9Y-5.8
X9.9Y-5.9
X9.9Y-6.
X9.9Y-6.1
X9.9Y-6.2
X9.9Y-6.3
X9.9Y-6.4
X9.9Y-6.5
X9.9Y-6.6
X10.Y-2.5
X10.Y-2.6
X10.Y-2.7
X10.Y-2.8
X10.Y-2.9
X10.Y-3.
X10.Y-3.1
X10.Y-3.2
X10.Y-3.3
X10.Y-3.4
X10.Y-3.5
X10.Y-3.6
X10.Y-3.7
X10.Y-3.8
X10.Y-3.9
X10.Y-4.
X10.Y-4.1
X10.Y-4.2
X10.Y-4.3
X10.Y-4.4
X10.Y-4.5
X10.Y-4.6
X10.Y-4.7
X10.Y-4.8
X10.Y-4.9
X10.Y-5.
X10.Y-5.1
X10.Y-5.2
X10.Y-5.3
X10.Y-5.4
X10.Y-5.5
X10.Y-5.6
X10.Y-5.7
X10.Y-5.8
X10.Y-5.9
X10.Y-6.
X10.Y-6.1
X10.Y-6.2
X10.Y-6.3
X10.Y-6.4
X10.Y-6.5
X10.Y-6.6
X10.Y-6.7
X10.Y-6.8
X10.1Y-2.5
X10.1Y-2.6
X10.1Y-2.7
X10.1Y-2.8
X10.1Y-2.9
X10.1Y-3.
X10.1Y-3.1
X10.1Y-3.2
X10.1Y-3.3
X10.1Y-3.4
X10.1Y-3.5
X10.1Y-3.6
X10.1Y-3.7
X10.1Y-3.8
X10.1Y-3.9
X10.1Y-4.
X10.1Y-4.1
X10.1Y-4.2
X10.1Y-4.3
X10.1Y-4.4
X10.1Y-4.5
X10.1Y-4.6
X10.1Y-4.7
X10.1Y-4.8
X10.1Y-4.9
X10.1Y-5.
X10.1Y-5.1
X10.1Y-5.2
X10.1Y-5.3
X10.1Y-5.4
X10.1Y-5.5
X10.1Y-5.6
X10.1Y-5.7
X10.1Y-5.8
X10.1Y-5.9
X10.1Y-6.
X10.1Y-6.1
X10.1Y-6.2
X10.1Y-6.3
X10.1Y-6.4
X10.1Y-6.5
X10.1Y-6.6
X10.1Y-6.7
X10.1Y-6.8
X10.2Y-2.5
X10.2Y-2.6
X10.2Y-2.7
X10.2Y-2.8
X10.2Y-2.9
X10.2Y-3.
X10.2Y-3.1
X10.2Y-3.2
X10.2Y-3.3
X10.2Y-3.4
X10.2Y-3.5
X10.2Y-3.6
X10.2Y-3.7
X10.2Y-3.8
X10.2Y-3.9
X10.2Y-4.
X10.2Y-4.1
X10.2Y-4.2
X10.2Y-4.3
X10.2Y-4.4
X10.2Y-4.5
X10.2Y-4.6
X10.2Y-4.7
X10.2Y-4.8
X10.2Y-4.9
X10.2Y-5.
X10.2Y-5.1
X10.2Y-5.2
X10.2Y-5.3
X10.2Y-5.4
X10.2Y-5.5
X10.2Y-5.6
X10.2Y-5.7
X10.2Y-5.8
X10.2Y-5.9
X10.2Y-6.
X10.2Y-6.1
X10.2Y-6.2
X10.2Y-6.3
X10.2Y-6.4
X10.2Y-6.5
X10.2Y-6.6
X10.2Y-6.7
X10.2Y-6.8
X10.3Y-2.5
X10.3Y-2.6
X10.3Y-2.7
X10.3Y-2.8
X10.3Y-2.9
X10.3Y-3.
X10.3Y-3.1
X10.3Y-3.2
X10.3Y-3.3
X10.3Y-3.4
X10.3Y-3.5
X10.3Y-3.6
X10.3Y-3.7
X10.3Y-3.8
X10.3Y-3.9
X10.3Y-4.
X10.3Y-4.1
X10.3Y-4.2
X10.3Y-4.3
X10.3Y-4.4
X10.3Y-4.5
X10.3Y-4.6
X10.3Y-4.7
X10.3Y-4.8
X10.3Y-4.9
X10.3Y-5.
X10.3Y-5.1
X10.3Y-5.2
X10.3Y-5.3
X10.3Y-5.4
X10.3Y-5.5
X10.3Y-5.6
X10.3Y-5.7
X10.3Y-5.8
X10.3Y-5.9
X10.3Y-6.
X10.3Y-6.1
X10.3Y-6.2
X10.3Y-6.3
X10.3Y-6.4
X10.3Y-6.5
X10.3Y-6.6
X10.3Y-6.7
X10.3Y-6.8
X10.4Y-2.5
X10.4Y-2.6
X10.4Y-2.7
X10.4Y-2.8
X10.4Y-2.9
X10.4Y-3.
X10.4Y-3.1
X10.4Y-3.2
X10.4Y-3.3
X10.4Y-3.4
X10.4Y-3.5
X10.4Y-3.6
X10.4Y-3.7
X10.4Y-3.8
X10.4Y-3.9
X10.4Y-4.
X10.4Y-4.1
X10.4Y-4.2
X10.4Y-4.3
X10.4Y-4.4
X10.4Y-4.5
X10.4Y-4.6
X10.4Y-4.7
X10.4Y-4.8
X10.4Y-4.9
X10.4Y-5.
X10.4Y-5.1
X10.4Y-5.2
X10.4Y-5.3
X10.4Y-5.4
X10.4Y-5.5
X10.4Y-5.6
X10.4Y-5.7
X10.4Y-5.8
X10.4Y-5.9
X10.4Y-6.
X10.4Y-6.1
X10.4Y-6.2
X10.4Y-6.3
X10.4Y-6.4
X10.4Y-6.5
X10.4Y-6.6
X10.4Y-6.7
X10.4Y-6.8
X10.5Y-2.5
X10.5Y-2.6
X10.5Y-2.7
X10.5Y-2.8
X10.5Y-2.9
X10.5Y-3.
X10.5Y-3.1
X10.5Y-3.2
X10.5Y-3.3
X10.5Y-3.4
X10.5Y-3.5
X10.5Y-3.6
X10.5Y-3.7
X10.5Y-3.8
X10.5Y-3.9
X10.5Y-4.
X10.5Y-4.1
X10.5Y-4.2
X10.5Y-4.3
X10.5Y-4.4
X10.5Y-4.5
X10.5Y-4.6
X10.5Y-4.7
X10.5Y-4.8
X10.5Y-4.9
X10.5Y-5.
X10.5Y-5.1
X10.5Y-5.2
X10.5Y-5.3
X10.5Y-5.4
X10.5Y-5.5
X10.5Y-5.6
X10.5Y-5.7
X10.5Y-5.8
X10.5Y-5.9
X10.5Y-6.
X10.5Y-6.1
X10.5Y-6.2
X10.5Y-6.3
X10.5Y-6.4
X10.5Y-6.5
X10.5Y-6.6
X10.5Y-6.7
X10.5Y-6.8
X10.6Y-2.5
X10.6Y-2.6
X10.6Y-2.7
X10.6Y-2.8
X10.6Y-2.9
X10.6Y-3.
X10.6Y-3.1
X10.6Y-3.2
X10.6Y-3.3
X10.6Y-3.4
X10.6Y-3.5
X10.6Y-3.6
X10.6Y-3.7
X10.6Y-3.8
X10.6Y-3.9
X10.6Y-4.
X10.6Y-4.1
X10.6Y-4.2
X10.6Y-4.3
X10.6Y-4.4
X10.6Y-4.5
X10.6Y-4.6
X10.6Y-4.7
X10.6Y-4.8
X10.6Y-4.9
X10.6Y-5.
X10.6Y-5.1
X10.6Y-5.2
X10.6Y-5.3
X10.6Y-5.4
X10.6Y-5.5
X10.6Y-5.6
X10.6Y-5.7
X10.6Y-5.8
X10.6Y-5.9
X10.6Y-6.
X10.6Y-6.1
X10.6Y-6.2
X10.6Y-6.3
X10.6Y-6.4
X10.6Y-6.5
X10.6Y-6.6
X10.6Y-6.7
X10.6Y-6.8
X10.7Y-2.5
X10.7Y-2.6
X10.7Y-2.7
X10.7Y-2.8
X10.7Y-2.9
X10.7Y-3.
X10.7Y-3.1
X10.7Y-3.2
X10.7Y-3.3
X10.7Y-3.4
X10.7Y-3.5
X10.7Y-3.6
X10.7Y-3.7
X10.7Y-3.8
X10.7Y-3.9
X10.7Y-4.
X10.7Y-4.1
X10.7Y-4.2
X10.7Y-4.3
X10.7Y-4.4
X10.7Y-4.5
X10.7Y-4.6
X10.7Y-4.7
X10.7Y-4.8
X10.7Y-4.9
X10.7Y-5.
X10.7Y-5.1
X10.7Y-5.2
X10.7Y-5.3
X10.7Y-5.4
X10.7Y-5.5
X10.7Y-5.6
X10.7Y-5.7
X10.7Y-5.8
X10.7Y-5.9
X10.7Y-6.
X10.7Y-6.1
X10.7Y-6.2
X10.7Y-6.3
X10.7Y-6.4
X10.7Y-6.5
X10.7Y-6.6
X10.7Y-6.7
X10.7Y-6.8
X10.8Y-2.5
X10.8Y-2.6
X10.8Y-2.7
X10.8Y-2.8
X10.8Y-2.9
X10.8Y-3.
X10.8Y-3.1
X10.8Y-3.2
X10.8Y-3.3
X10.8Y-3.4
X10.8Y-3.5
X10.8Y-3.6
X10.8Y-3.7
X10.8Y-3.8
X10.8Y-3.9
X10.8Y-4.
X10.8Y-4.1
X10.8Y-4.2
X10.8Y-4.3
X10.8Y-4.4
X10.8Y-4.5
X10.8Y-4.6
X10.8Y-4.7
X10.8Y-4.8
X10.8Y-4.9
X10.8Y-5.
X10.8Y-5.1
X10.8Y-5.2
X10.8Y-5.3
X10.8Y-5.4
X10.8Y-5.5
X10.8Y-5.6
X10.8Y-5.7
X10.8Y-5.8
X10.8Y-5.9
X10.8Y-6.
X10.8Y-6.1
X10.8Y-6.2
X10.8Y-6.3
X10.8Y-6.4
X10.8Y-6.5
X10.8Y-6.6
X10.8Y-6.7
X10.8Y-6.8
X10.9Y-2.5
X10.9Y-2.6
X10.9Y-2.7
X10.9Y-2.8
X10.9Y-2.9
X10.9Y-3.
X10.9Y-3.1
X10.9Y-3.2
X10.9Y-3.3
X10.9Y-3.4
X10.9Y-3.5
X10.9Y-3.6
X10.9Y-3.7
X10.9Y-3.8
X10.9Y-3.9
X10.9Y-4.
X10.9Y-4.1
X10.9Y-4.2
X10.9Y-4.3
X10.9Y-4.4
X10.9Y-4.5
X10.9Y-4.6
X10.9Y-4.7
X10.9Y-4.8
X10.9Y-4.9
X10.9Y-5.
X10.9Y-5.1
X10.9Y-5.2
X10.9Y-5.3
X10.9Y-5.4
X10.9Y-5.5
X10.9Y-5.6
X10.9Y-5.7
X10.9Y-5.8
X10.9Y-5.9
X10.9Y-6.
X10.9Y-6.1
X10.9Y-6.2
X10.9Y-6.3
X10.9Y-6.4
X10.9Y-6.5
X10.9Y-6.6
X10.9Y-6.7
X10.9Y-6.8
X11.Y-2.5
X11.Y-2.6
X11.Y-2.7
X11.Y-2.8
X11.Y-2.9
X11.Y-3.
X11.Y-3.1
X11.Y-3.2
X11.Y-3.3
X11.Y-3.4
X11.Y-3.5
X11.Y-3.6
X11.Y-3.7
X11.Y-3.8
X11.Y-3.9
X11.Y-4.
X11.Y-4.1
X11.Y-4.2
X11.Y-4.3
X11.Y-4.4
X11.Y-4.5
X11.Y-4.6
X11.Y-4.7
X11.Y-4.8
X11.Y-4.9
X11.Y-5.
X11.Y-5.1
X11.Y-5.2
X11.Y-5.3
X11.Y-5.4
X11.Y-5.5
X11.Y-5.6
X11.Y-5.7
X11.Y-5.8
X11.Y-5.9
X11.Y-6.
X11.Y-6.1
X11.Y-6.2
X11.Y-6.3
X11.Y-6.4
X11.Y-6.5
X11.Y-6.6
X11.Y-6.7
X11.Y-6.8
X11.1Y-2.5
X11.1Y-2.6
X11.1Y-2.7
X11.1Y-2.8
X11.1Y-2.9
X11.1Y-3.
X11.1Y-3.1
X11.1Y-3.2
X11.1Y-3.3
X11.1Y-3.4
X11.1Y-3.5
X11.1Y-3.6
X11.1Y-3.7
X11.1Y-3.8
X11.1Y-3.9
X11.1Y-4.
X11.1Y-4.1
X11.1Y-4.2
X11.1Y-4.3
X11.1Y-4.4
X11.1Y-4.5
X11.1Y-4.6
X11.1Y-4.7
X11.1Y-4.8
X11.1Y-4.9
X11.1Y-5.
X11.1Y-5.1
X11.1Y-5.2
X11.1Y-5.3
X11.1Y-5.4
X11.1Y-5.5
X11.1Y-5.6
X11.1Y-5.7
X11.1Y-5.8
X11.1Y-5.9
X11.1Y-6.
X11.1Y-6.1
X11.1Y-6.2
X11.1Y-6.3
X11.1Y-6.4
X11.1Y-6.5
X11.1Y-6.6
X11.1Y-6.7
X11.1Y-6.8
X11.2Y-2.5
X11.2Y-2.6
X11.2Y-2.7
X11.2Y-2.8
X11.2Y-2.9
X11.2Y-3.
X11.2Y-3.1
X11.2Y-3.2
X11.2Y-3.3
X11.2Y-3.4
X11.2Y-3.5
X11.2Y-3.6
X11.2Y-3.7
X11.2Y-3.8
X11.2Y-3.9
X11.2Y-4.
X11.2Y-4.1
X11.2Y-4.2
X11.2Y-4.3
X11.2Y-4.4
X11.2Y-4.5
X11.2Y-4.6
X11.2Y-4.7
X11.2Y-4.8
X11.2Y-4.9
X11.2Y-5.
X11.2Y-5.1
X11.2Y-5.2
X11.2Y-5.3
X11.2Y-5.4
X11.2Y-5.5
X11.2Y-5.6
X11.2Y-5.7
X11.2Y-5.8
X11.2Y-5.9
X11.2Y-6.
X11.2Y-6.1
X11.2Y-6.2
X11.2Y-6.3
X11.2Y-6.4
X11.2Y-6.5
X11.2Y-6.6
X11.2Y-6.7
X11.2Y-6.8
X11.3Y-2.5
X11.3Y-2.6
X11.3Y-2.7
X11.3Y-2.8
X11.3Y-2.9
X11.3Y-3.
X11.3Y-3.1
X11.3Y-3.2
X11.3Y-3.3
X11.3Y-3.4
X11.3Y-3.5
X11.3Y-3.6
X11.3Y-3.7
X11.3Y-3.8
X11.3Y-3.9
X11.3Y-4.
X11.3Y-4.1
X11.3Y-4.2
X11.3Y-4.3
X11.3Y-4.4
X11.3Y-4.5
X11.3Y-4.6
X11.3Y-4.7
X11.3Y-4.8
X11.3Y-4.9
X11.3Y-5.
X11.3Y-5.1
X11.3Y-5.2
X11.3Y-5.3
X11.3Y-5.4
X11.3Y-5.5
X11.3Y-5.6
X11.3Y-5.7
X11.3Y-5.8
X11.3Y-5.9
X11.3Y-6.
X11.3Y-6.1
X11.3Y-6.2
X11.3Y-6.3
X11.3Y-6.4
X11.3Y-6.5
X11.3Y-6.6
X11.3Y-6.7
X11.3Y-6.8
X11.4Y-2.5
X11.4Y-2.6
X11.4Y-2.7
X11.4Y-2.8
X11.4Y-2.9
X11.4Y-3.
X11.4Y-3.1
X11.4Y-3.2
X11.4Y-3.3
X11.4Y-3.4
X11.4Y-3.5
X11.4Y-3.6
X11.4Y-3.7
X11.4Y-3.8
X11.4Y-3.9
X11.4Y-4.
X11.4Y-4.1
X11.4Y-4.2
X11.4Y-4.3
X11.4Y-4.4
X11.4Y-4.5
X11.4Y-4.6
X11.4Y-4.7
X11.4Y-4.8
X11.4Y-4.9
X11.4Y-5.
X11.4Y-5.1
X11.4Y-5.2
X11.4Y-5.3
X11.4Y-5.4
X11.4Y-5.5
X11.4Y-5.6
X11.4Y-5.7
X11.4Y-5.8
X11.4Y-5.9
X11.4Y-6.
X11.4Y-6.1
X11.4Y-6.2
X11.4Y-6.3
X11.4Y-6.4
X11.4Y-6.5
X11.4Y-6.6
X11.4Y-6.7
X11.4Y-6.8
X11.5Y-2.5
X11.5Y-2.6
X11.5Y-2.7
X11.5Y-2.8
X11.5Y-2.9
X11.5Y-3.
X11.5Y-3.1
X11.5Y-3.2
X11.5Y-3.3
X11.5Y-3.4
X11.5Y-3.5
X11.5Y-3.6
X11.5Y-3.7
X11.5Y-3.8
X11.5Y-3.9
X11.5Y-4.
X11.5Y-4.1
X11.5Y-4.2
X11.5Y-4.3
X11.5Y-4.4
X11.5Y-4.5
X11.5Y-4.6
X11.5Y-4.7
X11.5Y-4.8
X11.5Y-4.9
X11.5Y-5.
X11.5Y-5.1
X11.5Y-5.2
X11.5Y-5.3
X11.5Y-5.4
X11.5Y-5.5
X11.5Y-5.6
X11.5Y-5.7
X11.5Y-5.8
X11.5Y-5.9
X11.5Y-6.
X11.5Y-6.1
X11.5Y-6.2
X11.5Y-6.3
X11.5Y-6.4
X11.5Y-6.5
X11.5Y-6.6
X11.5Y-6.7
X11.5Y-6.8
X11.6Y-2.5
X11.6Y-2.6
X11.6Y-2.7
X11.6Y-2.8
X11.6Y-2.9
X11.6Y-3.
X11.6Y-3.1
X11.6Y-3.2
X11.6Y-3.3
X11.6Y-3.4
X11.6Y-3.5
X11.6Y-3.6
X11.6Y-3.7
X11.6Y-3.8
X11.6Y-3.9
X11.6Y-4.
X11.6Y-4.1
X11.6Y-4.2
X11.6Y-4.3
X11.6Y-4.4
X11.6Y-4.5
X11.6Y-4.6
X11.6Y-4.7
X11.6Y-4.8
X11.6Y-4.9
X11.6Y-5.
X11.6Y-5.1
X11.6Y-5.2
X11.6Y-5.3
X11.6Y-5.4
X11.6Y-5.5
X11.6Y-5.6
X11.6Y-5.7
X11.6Y-5.8
X11.6Y-5.9
X11.6Y-6.
X11.6Y-6.1
X11.6Y-6.2
X11.6Y-6.3
X11.6Y-6.4
X11.6Y-6.5
X11.6Y-6.6
X11.6Y-6.7
X11.6Y-6.8
X11.7Y-2.5
X11.7Y-2.6
X11.7Y-2.7
X11.7Y-2.8
X11.7Y-2.9
X11.7Y-3.
X11.7Y-3.1
X11.7Y-3.2
X11.7Y-3.3
X11.7Y-3.4
X11.7Y-3.5
X11.7Y-3.6
X11.7Y-3.7
X11.7Y-3.8
X11.7Y-3.9
X11.7Y-4.
X11.7Y-4.1
X11.7Y-4.2
X11.7Y-4.3
X11.7Y-4.4
X11.7Y-4.5
X11.7Y-4.6
X11.7Y-4.7
X11.7Y-4.8
X11.7Y-4.9
X11.7Y-5.
X11.7Y-5.1
X11.7Y-5.2
X11.7Y-5.3
X11.7Y-5.4
X11.7Y-5.5
X11.7Y-5.6
X11.7Y-5.7
X11.7Y-5.8
X11.7Y-5.9
X11.7Y-6.
X11.7Y-6.1
X11.7Y-6.2
X11.7Y-6.3
X11.7Y-6.4
X11.7Y-6.5
X11.7Y-6.6
X11.7Y-6.7
X11.7Y-6.8
X11.8Y-2.5
X11.8Y-2.6
X11.8Y-2.7
X11.8Y-2.8
X11.8Y-2.9
X11.8Y-3.
X11.8Y-3.1
X11.8Y-3.2
X11.8Y-3.3
X11.8Y-3.4
X11.8Y-3.5
X11.8Y-3.6
X11.8Y-3.7
X11.8Y-3.8
X11.8Y-3.9
X11.8Y-4.
X11.8Y-4.1
X11.8Y-4.2
X11.8Y-4.3
X11.8Y-4.4
X11.8Y-4.5
X11.8Y-4.6
X11.8Y-4.7
X11.8Y-4.8
X11.8Y-4.9
X11.8Y-5.
X11.8Y-5.1
X11.8Y-5.2
X11.8Y-5.3
X11.8Y-5.4
X11.8Y-5.5
X11.8Y-5.6
X11.8Y-5.7
X11.8Y-5.8
X11.8Y-5.9
X11.8Y-6.
X11.8Y-6.1
X11.8Y-6.2
X11.8Y-6.3
X11.8Y-6.4
X11.8Y-6.5
X11.8Y-6.6
X11.8Y-6.7
X11.8Y-6.8
X11.9Y-2.5
X11.9Y-2.6
X11.9Y-2.7
X11.9Y-2.8
X11.9Y-2.9
X11.9Y-3.
X11.9Y-3.1
X11.9Y-3.2
X11.9Y-3.3
X11.9Y-3.4
X11.9Y-3.5
X11.9Y-3.6
X11.9Y-3.7
X11.9Y-3.8
X11.9Y-3.9
X11.9Y-4.
X11.9Y-4.1
X11.9Y-4.2
X11.9Y-4.3
X11.9Y-4.4
X11.9Y-4.5
X11.9Y-4.6
X11.9Y-4.7
X11.9Y-4.8
X11.9Y-4.9
X11.9Y-5.
X11.9Y-5.1
X11.9Y-5.2
X11.9Y-5.3
X11.9Y-5.4
X11.9Y-5.5
X11.9Y-5.6
X11.9Y-5.7
X11.9Y-5.8
X11.9Y-5.9
X11.9Y-6.
X11.9Y-6.1
X11.9Y-6.2
X11.9Y-6.3
X11.9Y-6.4
X11.9Y-6.5
X11.9Y-6.6
X11.9Y-6.7
X11.9Y-6.8
X12.Y-2.5
X12.Y-2.6
X12.Y-2.7
X12.Y-2.8
X12.Y-2.9
X12.Y-3.
X12.Y-3.1
X12.Y-3.2
X12.Y-3.3
X12.Y-3.4
X12.Y-3.5
X12.Y-3.6
X12.Y-3.7
X12.Y-3.8
X12.Y-3.9
X12.Y-4.
X12.Y-4.1
X12.Y-4.2
X12.Y-4.3
X12.Y-4.4
X12.Y-4.5
X12.Y-4.6
X12.Y-4.7
X12.Y-4.8
X12.Y-4.9
X12.Y-5.
X12.Y-5.1
X12.Y-5.2
X12.Y-5.3
X12.Y-5.4
X12.Y-5.5
X12.Y-5.6
X12.Y-5.7
X12.Y-5.8
X12.Y-5.9
X12.Y-6.
X12.Y-6.1
X12.Y-6.2
X12.Y-6.3
X12.Y-6.4
X12.Y-6.5
X12.Y-6.6
X12.Y-6.7
X12.Y-6.8
X12.1Y-2.5
X12.1Y-2.6
X12.1Y-2.7
X12.1Y-2.8
X12.1Y-2.9
X12.1Y-3.
X12.1Y-3.1
X12.1Y-3.2
X12.1Y-3.3
X12.1Y-3.4
X12.1Y-3.5
X12.1Y-3.6
X12.1Y-3.7
X12.1Y-3.8
X12.1Y-3.9
X12.1Y-4.
X12.1Y-4.1
X12.1Y-4.2
X12.1Y-4.3
X12.1Y-4.4
X12.1Y-4.5
X12.1Y-4.6
X12.1Y-4.7
X12.1Y-4.8
X12.1Y-4.9
X12.1Y-5.
X12.1Y-5.1
X12.1Y-5.2
X12.1Y-5.3
X12.1Y-5.4
X12.1Y-5.5
X12.1Y-5.6
X12.1Y-5.7
X12.1Y-5.8
X12.1Y-5.9
X12.1Y-6.
X12.1Y-6.1
X12.1Y-6.2
X12.1Y-6.3
X12.1Y-6.4
X12.1Y-6.5
X12.1Y-6.6
X12.1Y-6.7
X12.1Y-6.8
X12.2Y-2.5
X12.2Y-2.6
X12.2Y-2.7
X12.2Y-2.8
X12.2Y-2.9
X12.2Y-3.
X12.2Y-3.1
X12.2Y-3.2
X12.2Y-3.3
X12.2Y-3.4
X12.2Y-3.5
X12.2Y-3.6
X12.2Y-3.7
X12.2Y-3.8
X12.2Y-3.9
X12.2Y-4.
X12.2Y-4.1
X12.2Y-4.2
X12.2Y-4.3
X12.2Y-4.4
X12.2Y-4.5
X12.2Y-4.6
X12.2Y-4.7
X12.2Y-4.8
X12.2Y-4.9
X12.2Y-5.
X12.2Y-5.1
X12.2Y-5.2
X12.2Y-5.3
X12.2Y-5.4
X12.2Y-5.5
X12.2Y-5.6
X12.2Y-5.7
X12.2Y-5.8
X12.2Y-5.9
X12.2Y-6.
X12.2Y-6.1
X12.2Y-6.2
X12.2Y-6.3
X12.2Y-6.4
X12.2Y-6.5
X12.2Y-6.6
X12.2Y-6.7
X12.2Y-6.8
X12.3Y-2.5
X12.3Y-2.6
X12.3Y-2.7
X12.3Y-2.8
X12.3Y-2.9
X12.3Y-3.
X12.3Y-3.1
X12.3Y-3.2
X12.3Y-3.3
X12.3Y-3.4
X12.3Y-3.5
X12.3Y-3.6
X12.3Y-3.7
X12.3Y-3.8
X12.3Y-3.9
X12.3Y-4.
X12.3Y-4.1
X12.3Y-4.2
X12.3Y-4.3
X12.3Y-4.4
X12.3Y-4.5
X12.3Y-4.6
X12.3Y-4.7
X12.3Y-4.8
X12.3Y-4.9
X12.3Y-5.
X12.3Y-5.1
X12.3Y-5.2
X12.3Y-5.3
X12.3Y-5.4
X12.3Y-5.5
X12.3Y-5.6
X12.3Y-5.7
X12.3Y-5.8
X12.3Y-5.9
X12.3Y-6.
X12.3Y-6.1
X12.3Y-6.2
X12.3Y-6.3
X12.3Y-6.4
X12.3Y-6.5
X12.3Y-6.6
X12.3Y-6.7
X12.3Y-6.8
X12.4Y-2.5
X12.4Y-2.6
X12.4Y-2.7
X12.4Y-2.8
X12.4Y-2.9
X12.4Y-3.
X12.4Y-3.1
X12.4Y-3.2
X12.4Y-3.3
X12.4Y-3.4
X12.4Y-3.5
X12.4Y-3.6
X12.4Y-3.7
X12.4Y-3.8
X12.4Y-3.9
X12.4Y-4.
X12.4Y-4.1
X12.4Y-4.2
X12.4Y-4.3
X12.4Y-4.4
X12.4Y-4.5
X12.4Y-4.6
X12.4Y-4.7
X12.4Y-4.8
X12.4Y-4.9
X12.4Y-5.
X12.4Y-5.1
X12.4Y-5.2
X12.4Y-5.3
X12.4Y-5.4
X12.4Y-5.5
X12.4Y-5.6
X12.4Y-5.7
X12.4Y-5.8
X12.4Y-5.9
X12.4Y-6.
X12.4Y-6.1
X12.4Y-6.2
X12.4Y-6.3
X12.4Y-6.4
X12.4Y-6.5
X12.4Y-6.6
X12.4Y-6.7
X12.4Y-6.8
X12.5Y-2.5
X12.5Y-2.6
X12.5Y-2.7
X12.5Y-2.8
X12.5Y-2.9
X12.5Y-3.
X12.5Y-3.1
X12.5Y-3.2
X12.5Y-3.3
X12.5Y-3.4
X12.5Y-3.5
X12.5Y-3.6
X12.5Y-3.7
X12.5Y-3.8
X12.5Y-3.9
X12.5Y-4.
X12.5Y-4.1
X12.5Y-4.2
X12.5Y-4.3
X12.5Y-4.4
X12.5Y-4.5
X12.5Y-4.6
X12.5Y-4.7
X12.5Y-4.8
X12.5Y-4.9
X12.5Y-5.
X12.5Y-5.1
X12.5Y-5.2
X12.5Y-5.3
X12.5Y-5.4
X12.5Y-5.5
X12.5Y-5.6
X12.5Y-5.7
X12.5Y-5.8
X12.5Y-5.9
X12.5Y-6.
X12.5Y-6.1
X12.5Y-6.2
X12.5Y-6.3
X12.5Y-6.4
X12.5Y-6.5
X12.5Y-6.6
X12.5Y-6.7
X12.5Y-6.8
X12.6Y-2.5
X12.6Y-2.6
X12.6Y-2.7
X12.6Y-2.8
X12.6Y-2.9
X12.6Y-3.
X12.6Y-3.1
X12.6Y-3.2
X12.6Y-3.3
X12.6Y-3.4
X12.6Y-3.5
X12.6Y-3.6
X12.6Y-3.7
X12.6Y-3.8
X12.6Y-3.9
X12.6Y-4.
X12.6Y-4.1
X12.6Y-4.2
X12.6Y-4.3
X12.6Y-4.4
X12.6Y-4.5
X12.6Y-4.6
X12.6Y-4.7
X12.6Y-4.8
X12.6Y-4.9
X12.6Y-5.
X12.6Y-5.1
X12.6Y-5.2
X12.6Y-5.3
X12.6Y-5.4
X12.6Y-5.5
X12.6Y-5.6
X12.6Y-5.7
X12.6Y-5.8
X12.6Y-5.9
X12.6Y-6.
X12.6Y-6.1
X12.6Y-6.2
X12.6Y-6.3
X12.6Y-6.4
X12.6Y-6.5
X12.6Y-6.6
X12.6Y-6.7
X12.6Y-6.8
X12.7Y-2.5
X12.7Y-2.6
X12.7Y-2.7
X12.7Y-2.8
X12.7Y-2.9
X12.7Y-3.
X12.7Y-3.1
X12.7Y-3.2
X12.7Y-3.3
X12.7Y-3.4
X12.7Y-3.5
X12.7Y-3.6
X12.7Y-3.7
X12.7Y-3.8
X12.7Y-3.9
X12.7Y-4.
X12.7Y-4.1
X12.7Y-4.2
X12.7Y-4.3
X12.7Y-4.4
X12.7Y-4.5
X12.7Y-4.6
X12.7Y-4.7
X12.7Y-4.8
X12.7Y-4.9
X12.7Y-5.
X12.7Y-5.1
X12.7Y-5.2
X12.7Y-5.3
X12.7Y-5.4
X12.7Y-5.5
X12.7Y-5.6
X12.7Y-5.7
X12.7Y-5.8
X12.7Y-5.9
X12.7Y-6.
X12.7Y-6.1
X12.7Y-6.2
X12.7Y-6.3
X12.7Y-6.4
X12.7Y-6.5
X12.7Y-6.6
X12.7Y-6.7
X12.7Y-6.8
X12.8Y-2.5
X12.8Y-2.6
X12.8Y-2.7
X12.8Y-2.8
X12.8Y-2.9
X12.8Y-3.
X12.8Y-3.1
X12.8Y-3.2
X12.8Y-3.3
X12.8Y-3.4
X12.8Y-3.5
X12.8Y-3.6
X12.8Y-3.7
X12.8Y-3.8
X12.8Y-3.9
X12.8Y-4.
X12.8Y-4.1
X12.8Y-4.2
X12.8Y-4.3
X12.8Y-4.4
X12.8Y-4.5
X12.8Y-4.6
X12.8Y-4.7
X12.8Y-4.8
X12.8Y-4.9
X12.8Y-5.
X12.8Y-5.1
X12.8Y-5.2
X12.8Y-5.3
X12.8Y-5.4
X12.8Y-5.5
X12.8Y-5.6
X12.8Y-5.7
X12.8Y-5.8
X12.8Y-5.9
X12.8Y-6.
X12.8Y-6.1
X12.8Y-6.2
X12.8Y-6.3
X12.8Y-6.4
X12.8Y-6.5
X12.8Y-6.6
X12.8Y-6.7
X12.8Y-6.8
X12.9Y-2.5
X12.9Y-2.6
X12.9Y-2.7
X12.9Y-2.8
X12.9Y-2.9
X12.9Y-3.
X12.9Y-3.1
X12.9Y-3.2
X12.9Y-3.3
X12.9Y-3.4
X12.9Y-3.5
X12.9Y-3.6
X12.9Y-3.7
X12.9Y-3.8
X12.9Y-3.9
X12.9Y-4.
X12.9Y-4.1
X12.9Y-4.2
X12.9Y-4.3
X12.9Y-4.4
X12.9Y-4.5
X12.9Y-4.6
X12.9Y-4.7
X12.9Y-4.8
X12.9Y-4.9
X12.9Y-5.
X12.9Y-5.1
X12.9Y-5.2
X12.9Y-5.3
X12.9Y-5.4
X12.9Y-5.5
X12.9Y-5.6
X12.9Y-5.7
X12.9Y-5.8
X12.9Y-5.9
X12.9Y-6.
X12.9Y-6.1
X12.9Y-6.2
X12.9Y-6.3
X12.9Y-6.4
X12.9Y-6.5
X12.9Y-6.6
X12.9Y-6.7
X12.9Y-6.8
X13.Y-2.5
X13.Y-2.6
X13.Y-2.7
X13.Y-2.8
X13.Y-2.9
X13.Y-3.
X13.Y-3.1
X13.Y-3.2
X13.Y-3.3
X13.Y-3.4
X13.Y-3.5
X13.Y-3.6
X13.Y-3.7
X13.Y-3.8
X13.Y-3.9
X13.Y-4.
X13.Y-4.1
X13.Y-4.2
X13.Y-4.3
X13.Y-4.4
X13.Y-4.5
X13.Y-4.6
X13.Y-4.7
X13.Y-4.8
X13.Y-4.9
X13.Y-5.
X13.Y-5.1
X13.Y-5.2
X13.Y-5.3
X13.Y-5.4
X13.Y-5.5
X13.Y-5.6
X13.Y-5.7
X13.Y-5.8
X13.Y-5.9
X13.Y-6.
X13.Y-6.1
X13.Y-6.2
X13.Y-6.3
X13.Y-6.4
X13.Y-6.5
X13.Y-6.6
X13.Y-6.7
X13.Y-6.8
X13.1Y-2.5
X13.1Y-2.6
X13.1Y-2.7
X13.1Y-2.8
X13.1Y-2.9
X13.1Y-3.
X13.1Y-3.1
X13.1Y-3.2
X13.1Y-3.3
X13.1Y-3.4
X13.1Y-3.5
X13.1Y-3.6
X13.1Y-3.7
X13.1Y-3.8
X13.1Y-3.9
X13.1Y-4.
X13.1Y-4.1
X13.1Y-4.2
X13.1Y-4.3
X13.1Y-4.4
X13.1Y-4.5
X13.1Y-4.6
X13.1Y-4.7
X13.1Y-4.8
X13.1Y-4.9
X13.1Y-5.
X13.1Y-5.1
X13.1Y-5.2
X13.1Y-5.3
X13.1Y-5.4
X13.1Y-5.5
X13.1Y-5.6
X13.1Y-5.7
X13.1Y-5.8
X13.1Y-5.9
X13.1Y-6.
X13.1Y-6.1
X13.1Y-6.2
X13.1Y-6.3
X13.1Y-6.4
X13.1Y-6.5
X13.1Y-6.6
X13.1Y-6.7
X13.1Y-6.8
X13.1Y-26.75
X13.2Y-2.5
X13.2Y-2.6
X13.2Y-2.7
X13.2Y-2.8
X13.2Y-2.9
X13.2Y-3.
X13.2Y-3.1
X13.2Y-3.2
X13.2Y-3.3
X13.2Y-3.4
X13.2Y-3.5
X13.2Y-3.6
X13.2Y-3.7
X13.2Y-3.8
X13.2Y-3.9
X13.2Y-4.
X13.2Y-4.1
X13.2Y-4.2
X13.2Y-4.3
X13.2Y-4.4
X13.2Y-4.5
X13.2Y-4.6
X13.2Y-4.7
X13.2Y-4.8
X13.2Y-4.9
X13.2Y-5.
X13.2Y-5.1
X13.2Y-5.2
X13.2Y-5.3
X13.2Y-5.4
X13.2Y-5.5
X13.2Y-5.6
X13.2Y-5.7
X13.2Y-5.8
X13.2Y-5.9
X13.2Y-6.
X13.2Y-6.1
X13.2Y-6.2
X13.2Y-6.3
X13.2Y-6.4
X13.2Y-6.5
X13.2Y-6.6
X13.2Y-6.7
X13.2Y-6.8
X13.3Y-2.5
X13.3Y-2.6
X13.3Y-2.7
X13.3Y-2.8
X13.3Y-2.9
X13.3Y-3.
X13.3Y-3.1
X13.3Y-3.2
X13.3Y-3.3
X13.3Y-3.4
X13.3Y-3.5
X13.3Y-3.6
X13.3Y-3.7
X13.3Y-3.8
X13.3Y-3.9
X13.3Y-4.
X13.3Y-4.1
X13.3Y-4.2
X13.3Y-4.3
X13.3Y-4.4
X13.3Y-4.5
X13.3Y-4.6
X13.3Y-4.7
X13.3Y-4.8
X13.3Y-4.9
X13.3Y-5.
X13.3Y-5.1
X13.3Y-5.2
X13.3Y-5.3
X13.3Y-5.4
X13.3Y-5.5
X13.3Y-5.6
X13.3Y-5.7
X13.3Y-5.8
X13.3Y-5.9
X13.3Y-6.
X13.3Y-6.1
X13.3Y-6.2
X13.3Y-6.3
X13.3Y-6.4
X13.3Y-6.5
X13.3Y-6.6
X13.4Y-2.5
X13.4Y-2.6
X13.4Y-2.7
X13.4Y-2.8
X13.4Y-2.9
X13.4Y-3.
X13.4Y-3.1
X13.4Y-3.2
X13.4Y-3.3
X13.4Y-3.4
X13.4Y-3.5
X13.4Y-3.6
X13.4Y-3.7
X13.4Y-3.8
X13.4Y-3.9
X13.4Y-4.
X13.4Y-4.1
X13.4Y-4.2
X13.4Y-4.3
X13.4Y-4.4
X13.4Y-4.5
X13.4Y-4.6
X13.4Y-4.7
X13.4Y-4.8
X13.4Y-4.9
X13.4Y-5.
X13.4Y-5.1
X13.4Y-5.2
X13.4Y-5.3
X13.4Y-5.4
X13.4Y-5.5
X13.4Y-5.6
X13.4Y-5.7
X13.4Y-5.8
X13.4Y-5.9
X13.4Y-6.
X13.4Y-6.1
X13.4Y-6.2
X13.4Y-6.3
X13.4Y-6.4
X13.4Y-6.5
X13.4Y-6.6
X13.4Y-6.7
X13.4Y-6.8
X13.5Y-2.5
X13.5Y-2.6
X13.5Y-2.7
X13.5Y-2.8
X13.5Y-2.9
X13.5Y-3.
X13.5Y-3.1
X13.5Y-3.2
X13.5Y-3.3
X13.5Y-3.4
X13.5Y-3.5
X13.5Y-3.6
X13.5Y-3.7
X13.5Y-3.8
X13.5Y-3.9
X13.5Y-4.
X13.5Y-4.1
X13.5Y-4.2
X13.5Y-4.3
X13.5Y-4.4
X13.5Y-4.5
X13.5Y-4.6
X13.5Y-4.7
X13.5Y-4.8
X13.5Y-4.9
X13.5Y-5.
X13.5Y-5.1
X13.5Y-5.2
X13.5Y-5.3
X13.5Y-5.4
X13.5Y-5.5
X13.5Y-5.6
X13.5Y-5.7
X13.5Y-5.8
X13.5Y-5.9
X13.5Y-6.
X13.5Y-6.1
X13.5Y-6.2
X13.5Y-6.3
X13.5Y-6.4
X13.5Y-6.5
X13.5Y-6.6
X13.5Y-6.7
X13.5Y-6.8
X13.6Y-2.5
X13.6Y-2.6
X13.6Y-2.7
X13.6Y-2.8
X13.6Y-2.9
X13.6Y-3.
X13.6Y-3.1
X13.6Y-3.2
X13.6Y-3.3
X13.6Y-3.4
X13.6Y-3.5
X13.6Y-3.6
X13.6Y-3.7
X13.6Y-3.8
X13.6Y-3.9
X13.6Y-4.
X13.6Y-4.1
X13.6Y-4.2
X13.6Y-4.3
X13.6Y-4.4
X13.6Y-4.5
X13.6Y-4.6
X13.6Y-4.7
X13.6Y-4.8
X13.6Y-4.9
X13.6Y-5.
X13.6Y-5.1
X13.6Y-5.2
X13.6Y-5.3
X13.6Y-5.4
X13.6Y-5.5
X13.6Y-5.6
X13.6Y-5.7
X13.6Y-5.8
X13.6Y-5.9
X13.6Y-6.
X13.6Y-6.1
X13.6Y-6.2
X13.6Y-6.3
X13.6Y-6.4
X13.6Y-6.5
X13.6Y-6.6
X13.6Y-6.7
X13.6Y-6.8
X13.7Y-2.5
X13.7Y-2.6
X13.7Y-2.7
X13.7Y-2.8
X13.7Y-2.9
X13.7Y-3.
X13.7Y-3.1
X13.7Y-3.2
X13.7Y-3.3
X13.7Y-3.4
X13.7Y-3.5
X13.7Y-3.6
X13.7Y-3.7
X13.7Y-3.8
X13.7Y-3.9
X13.7Y-4.
X13.7Y-4.1
X13.7Y-4.2
X13.7Y-4.3
X13.7Y-4.4
X13.7Y-4.5
X13.7Y-4.6
X13.7Y-4.7
X13.7Y-4.8
X13.7Y-4.9
X13.7Y-5.
X13.7Y-5.1
X13.7Y-5.2
X13.7Y-5.3
X13.7Y-5.4
X13.7Y-5.5
X13.7Y-5.6
X13.7Y-5.7
X13.7Y-5.8
X13.7Y-5.9
X13.7Y-6.
X13.7Y-6.1
X13.7Y-6.2
X13.7Y-6.3
X13.7Y-6.4
X13.7Y-6.5
X13.7Y-6.6
X13.7Y-6.7
X13.7Y-6.8
X13.8Y-2.5
X13.8Y-2.6
X13.8Y-2.7
X13.8Y-2.8
X13.8Y-2.9
X13.8Y-3.
X13.8Y-3.1
X13.8Y-3.2
X13.8Y-3.3
X13.8Y-3.4
X13.8Y-3.5
X13.8Y-3.6
X13.8Y-3.7
X13.8Y-3.8
X13.8Y-3.9
X13.8Y-4.
X13.8Y-4.1
X13.8Y-4.2
X13.8Y-4.3
X13.8Y-4.4
X13.8Y-4.5
X13.8Y-4.6
X13.8Y-4.7
X13.8Y-4.8
X13.8Y-4.9
X13.8Y-5.
X13.8Y-5.1
X13.8Y-5.2
X13.8Y-5.3
X13.8Y-5.4
X13.8Y-5.5
X13.8Y-5.6
X13.8Y-5.7
X13.8Y-5.8
X13.8Y-5.9
X13.8Y-6.
X13.8Y-6.1
X13.8Y-6.2
X13.8Y-6.3
X13.8Y-6.4
X13.8Y-6.5
X13.8Y-6.6
X13.8Y-6.7
X13.8Y-6.8
X13.9Y-2.5
X13.9Y-2.6
X13.9Y-2.7
X13.9Y-2.8
X13.9Y-2.9
X13.9Y-3.
X13.9Y-3.1
X13.9Y-3.2
X13.9Y-3.3
X13.9Y-3.4
X13.9Y-3.5
X13.9Y-3.6
X13.9Y-3.7
X13.9Y-3.8
X13.9Y-3.9
X13.9Y-4.
X13.9Y-4.1
X13.9Y-4.2
X13.9Y-4.3
X13.9Y-4.4
X13.9Y-4.5
X13.9Y-4.6
X13.9Y-4.7
X13.9Y-4.8
X13.9Y-4.9
X13.9Y-5.
X13.9Y-5.1
X13.9Y-5.2
X13.9Y-5.3
X13.9Y-5.4
X13.9Y-5.5
X13.9Y-5.6
X13.9Y-5.7
X13.9Y-5.8
X13.9Y-5.9
X13.9Y-6.
X13.9Y-6.1
X13.9Y-6.2
X13.9Y-6.3
X13.9Y-6.4
X13.9Y-6.5
X13.9Y-6.6
X13.9Y-6.7
X13.9Y-6.8
X14.Y-2.5
X14.Y-2.6
X14.Y-2.7
X14.Y-2.8
X14.Y-2.9
X14.Y-3.
X14.Y-3.1
X14.Y-3.2
X14.Y-3.3
X14.Y-3.4
X14.Y-3.5
X14.Y-3.6
X14.Y-3.7
X14.Y-3.8
X14.Y-3.9
X14.Y-4.
X14.Y-4.1
X14.Y-4.2
X14.Y-4.3
X14.Y-4.4
X14.Y-4.5
X14.Y-4.6
X14.Y-4.7
X14.Y-4.8
X14.Y-4.9
X14.Y-5.
X14.Y-5.1
X14.Y-5.2
X14.Y-5.3
X14.Y-5.4
X14.Y-5.5
X14.Y-5.6
X14.Y-5.7
X14.Y-5.8
X14.Y-5.9
X14.Y-6.
X14.Y-6.1
X14.Y-6.2
X14.Y-6.3
X14.Y-6.4
X14.Y-6.5
X14.Y-6.6
X14.Y-6.7
X14.Y-6.8
X18.1Y-26.75
X23.1Y-26.75
X28.1Y-26.75
T0
M30
